<svg xmlns="http://www.w3.org/2000/svg" viewBox="0 0 11 11"><path fill="#7bbb29" d="M5.452 10.57c-2.88 0-5.216-2.353-5.216-5.255C.236 2.412 2.57.06 5.452.06c2.882 0 5.217 2.352 5.217 5.255 0 2.902-2.336 5.255-5.218 5.255zm0-9.58C3.082.99 1.16 2.924 1.16 5.314c0 2.388 1.92 4.325 4.292 4.325s4.294-1.937 4.294-4.325C9.746 2.925 7.824.99 5.452.99zm-.615 6.367c-.074.075-.194.075-.268 0l-.06-.06-.064-.064-.28-.28v-.005L2.885 5.65c-.074-.074-.074-.195 0-.27l.403-.405c.073-.075.193-.075.267 0L4.705 6.14l2.412-2.432c.075-.074.195-.074.27 0l.4.406c.075.075.075.196 0 .27l-2.95 2.973z"/></svg>